<svg width="27" height="28" viewBox="0 0 27 28" fill="none" xmlns="http://www.w3.org/2000/svg">
<path d="M23.5 19C24.1569 19 24.5929 19.1065 24.8867 19.251C25.1656 19.3881 25.3642 19.5826 25.5195 19.8555C25.8693 20.47 26 21.4694 26 23C26 25.265 23.7349 27 21 27C19.7005 27 18.721 26.5843 18.0684 25.9316C17.4157 25.279 17 24.2995 17 23C17 22.0134 17.7358 21.0279 19.1143 20.2256C20.4612 19.4417 22.1629 19 23.5 19Z" stroke="white" stroke-width="2"/>
<path d="M7.00879 19C7.60183 19 7.96554 19.0945 8.19141 19.208C8.39739 19.3116 8.53882 19.455 8.65137 19.6729C8.9236 20.2001 9 21.071 9 22.5C9 24.7091 7.20914 26.5 5 26.5C2.79086 26.5 1 24.7091 1 22.5C1 21.6762 1.64843 20.8121 2.95312 20.0889C4.21572 19.3891 5.80217 19 7.00879 19Z" stroke="white" stroke-width="2"/>
<line x1="9" y1="10" x2="9" y2="22" stroke="white" stroke-width="2"/>
<line x1="26" y1="3" x2="26" y2="22" stroke="white" stroke-width="2"/>
<line x1="14" y1="3" x2="27" y2="3" stroke="white" stroke-width="2"/>
<path d="M4 4L12 4" stroke="white" stroke-width="2"/>
<line x1="8" x2="8" y2="8" stroke="white" stroke-width="2"/>
</svg>
