<svg width="23" height="19" viewBox="0 0 23 19" fill="none" xmlns="http://www.w3.org/2000/svg">
<path d="M21.9333 3.7C22.4667 4.1 22.4667 4.9 21.9333 5.3L18.6 7.8C17.9408 8.29443 17 7.82405 17 7V2C17 1.17595 17.9408 0.705573 18.6 1.2L21.9333 3.7Z" fill="currentColor"/>
<rect x="13" y="3" width="6" height="3" rx="1.5" fill="currentColor"/>
<rect y="15" width="4" height="3" rx="1.5" fill="currentColor"/>
<path d="M14 5L3 16" stroke="currentColor" stroke-width="3" stroke-linecap="round"/>
<path d="M15.0605 13.9395C15.0799 13.9588 15.0972 13.9799 15.1152 14H17V13C17 12.176 17.9404 11.706 18.5996 12.2002L21.9336 14.7002C22.4666 15.1002 22.4666 15.8998 21.9336 16.2998L18.5996 18.7998C17.9404 19.294 17 18.824 17 18V17H14.5C13.9573 17 13.4831 16.711 13.2197 16.2793C13.1203 16.2185 13.0255 16.1466 12.9395 16.0605L10.3086 13.4297L12.4297 11.3086L15.0605 13.9395ZM2.5 2C3.04224 2 3.5158 2.28863 3.7793 2.71973C3.83667 2.75472 3.89304 2.79255 3.94629 2.83594L4.06055 2.93945L7.61133 6.49023L5.49023 8.61133L1.93945 5.06055L1.88477 5H1.5C0.671573 5 0 4.32843 0 3.5C0 2.67157 0.671573 2 1.5 2H2.5Z" fill="currentColor"/>
</svg>
