<svg width="64" height="64" viewBox="0 0 64 64" fill="none" xmlns="http://www.w3.org/2000/svg">
<circle cx="32" cy="32" r="30.5" stroke="white" stroke-width="3"/>
<path d="M34.5 14C34.5 12.6193 33.3807 11.5 32 11.5C30.6193 11.5 29.5 12.6193 29.5 14H34.5ZM30.2322 54.7678C31.2085 55.7441 32.7915 55.7441 33.7678 54.7678L49.6777 38.8579C50.654 37.8816 50.654 36.2986 49.6777 35.3223C48.7014 34.346 47.1184 34.346 46.1421 35.3223L32 49.4645L17.8579 35.3223C16.8816 34.346 15.2986 34.346 14.3223 35.3223C13.346 36.2986 13.346 37.8816 14.3223 38.8579L30.2322 54.7678ZM32 14H29.5L29.5 53H32H34.5V14H32Z" fill="white"/>
</svg>
