<svg width="27" height="25" viewBox="0 0 27 25" fill="none" xmlns="http://www.w3.org/2000/svg">
<line x1="8" y1="1" x2="26" y2="1" stroke="currentColor" stroke-width="2"/>
<path d="M6.30762 17C6.8253 17 7.12878 17.0866 7.30859 17.1816C7.4702 17.2672 7.58928 17.3886 7.68848 17.5908C7.93099 18.0852 7.99998 18.9076 8 20.2627C8 22.3754 6.38528 24 4.5 24C2.61472 24 1 22.3754 1 20.2627C1.00023 19.4859 1.57715 18.6848 2.72559 18.0146C3.84504 17.3615 5.24907 17 6.30762 17Z" stroke="currentColor" stroke-width="2"/>
<line x1="8" x2="8" y2="21" stroke="currentColor" stroke-width="2"/>
<path d="M24.3076 17C24.8253 17 25.1288 17.0866 25.3086 17.1816C25.4702 17.2672 25.5893 17.3886 25.6885 17.5908C25.931 18.0852 26 18.9076 26 20.2627C26 22.3754 24.3853 24 22.5 24C20.6147 24 19 22.3754 19 20.2627C19.0002 19.4859 19.5772 18.6848 20.7256 18.0146C21.845 17.3615 23.2491 17 24.3076 17Z" stroke="currentColor" stroke-width="2"/>
<path d="M26 0V21" stroke="currentColor" stroke-width="2"/>
</svg>
