<svg width="416" height="514" viewBox="0 0 416 514" fill="none" xmlns="http://www.w3.org/2000/svg">
<path d="M293 129.6L208.2 44.8L123.4 129.6L101 107.2L208.2 0L315.4 107.2L293 129.6Z" fill="white"/>
<path d="M192 25H224V286H192V25Z" fill="white"/>
<path d="M368 514H48C20.8 514 0 493.2 0 466V178C0 150.8 20.8 130 48 130H96.5V162H48C38.4 162 32 168.4 32 178V466C32 475.6 38.4 482 48 482H368C377.6 482 384 475.6 384 466V178C384 168.4 377.6 162 368 162H318.5V130H368C395.2 130 416 150.8 416 178V466C416 493.2 395.2 514 368 514Z" fill="white"/>
</svg>
