<svg width="61" height="42" viewBox="0 0 61 42" fill="none" xmlns="http://www.w3.org/2000/svg">
<rect x="1.5" y="1.5" width="58" height="39" rx="1.5" stroke="white" stroke-width="3"/>
<rect x="0.470306" y="29.7739" width="21.9426" height="3.16598" transform="rotate(-50 0.470306 29.7739)" fill="white"/>
<rect width="18.3114" height="3" transform="matrix(-0.669131 -0.743145 -0.743145 0.669131 27.2296 26.8179)" fill="white"/>
<path d="M25.5633 26.565C24.7707 26.8062 24.3238 27.6442 24.565 28.4367C24.8062 29.2293 25.6442 29.6762 26.4367 29.435L25.5633 26.565ZM26 28L26.4367 29.435L49.4367 22.435L49 21L48.5633 19.565L25.5633 26.565L26 28Z" fill="white"/>
<rect x="58.1875" y="29.8263" width="14.0082" height="3" transform="rotate(-143 58.1875 29.8263)" fill="white"/>
<circle cx="51.5" cy="12.5" r="2.5" fill="white"/>
</svg>
