<svg width="44" height="41" viewBox="0 0 44 41" fill="none" xmlns="http://www.w3.org/2000/svg">
<path d="M11 6V11H5V31H9V31.0498C10.1411 31.2814 11 32.2905 11 33.5C11 34.7094 10.141 35.7175 9 35.9492V36H5C2.32472 36 0.140529 33.8989 0.00683594 31.2568L0 31V11C3.12089e-07 8.32472 2.10111 6.14053 4.74316 6.00684L5 6H11ZM39.2568 6.00684C41.8989 6.14053 44 8.32472 44 11V31L43.9932 31.2568C43.8595 33.8989 41.6753 36 39 36H22.3809L24.8721 37.7793C25.5461 38.2608 25.7022 39.198 25.2207 39.8721C24.7392 40.5461 23.802 40.7022 23.1279 40.2207L16.1279 35.2207L16.0078 35.125C15.6248 34.788 15.451 34.2887 15.5137 33.8057C15.4493 33.3043 15.6384 32.7828 16.0615 32.4434L23.0615 26.8301C23.7078 26.3119 24.6516 26.4154 25.1699 27.0615C25.6881 27.7078 25.5846 28.6516 24.9385 29.1699L22.6562 31H39V11H33V6H39L39.2568 6.00684Z" fill="currentColor"/>
<path d="M16 20C15.7083 20 15.4948 19.8906 15.3594 19.6719C15.2344 19.4531 15.1719 19.099 15.1719 18.6094V18.1406C15.1719 17.651 15.2344 17.2969 15.3594 17.0781C15.4948 16.8594 15.7083 16.75 16 16.75H19.7031V4.26562L15.9219 4.82812C15.6094 4.82812 15.3802 4.57812 15.2344 4.07812C15.099 3.56771 15.0312 3.03646 15.0312 2.48438C15.0312 2.27604 15.0938 2.10938 15.2188 1.98438C15.3438 1.84896 15.5208 1.76042 15.75 1.71875L22.6719 0.4375C22.901 0.4375 23.1458 0.510417 23.4062 0.65625C23.6771 0.802083 23.8125 0.953125 23.8125 1.10938V16.75H26.7812C27.0729 16.75 27.2865 16.8646 27.4219 17.0938C27.5573 17.3125 27.625 17.6615 27.625 18.1406V18.6094C27.625 19.0885 27.5573 19.4427 27.4219 19.6719C27.2865 19.8906 27.0729 20 26.7812 20H16Z" fill="currentColor"/>
</svg>
