<svg width="50" height="50" viewBox="0 0 50 50" fill="none" xmlns="http://www.w3.org/2000/svg">
<path d="M32.7109 5C38.9449 5 43.999 10.0539 43.999 16.2881L43.9844 16.8691C43.7442 21.605 40.5841 25.5674 36.2695 27L33.7754 24.5049C37.8495 23.9823 40.999 20.5047 40.999 16.2881C40.999 11.7106 37.2879 8 32.7109 8C28.495 8.00028 25.0166 11.1493 24.4941 15.2236L22 12.7295C23.4907 8.2397 27.721 5.00025 32.7109 5Z" fill="currentColor"/>
<path d="M20.7536 16.2536L22 12.5L36.5 27L32.5663 28.5663L20.7536 16.2536Z" fill="currentColor"/>
<rect x="0.195221" y="44.1292" width="3.3812" height="8.73112" rx="1.6906" transform="rotate(-50 0.195221 44.1292)" fill="currentColor"/>
<path d="M1.28398 43.1218C0.798945 43.7934 0.950175 44.731 1.62176 45.216C2.29335 45.7011 3.23098 45.5498 3.71602 44.8782L1.28398 43.1218ZM2.5 44L3.71602 44.8782L23.216 17.8782L22 17L20.784 16.1218L1.28398 43.1218L2.5 44Z" fill="currentColor"/>
<path d="M6.06566 46.8265C5.41758 47.3426 5.31052 48.2863 5.82654 48.9343C6.34256 49.5824 7.28625 49.6895 7.93434 49.1735L6.06566 46.8265ZM7 48L7.93434 49.1735L35.7806 27.0017L34.8463 25.8282L33.912 24.6547L6.06566 46.8265L7 48Z" fill="currentColor"/>
</svg>
