<svg width="86" height="109" viewBox="0 0 86 109" fill="none" xmlns="http://www.w3.org/2000/svg">
<path d="M61.6445 5.74707C61.8068 6.36913 61.8945 7.02145 61.8945 7.69434V30H51.6445V9.10938L11.1797 46.4824C5.46036 51.765 5.63529 60.8565 11.5537 65.915L51.6445 100.179V83H61.8945V101.182C61.8945 101.861 61.8075 102.521 61.6445 103.149V109H51.6445V108.61C50.7899 108.331 49.9838 107.905 49.2666 107.346L48.9971 107.125L7.00586 71.2363C-1.95736 63.5756 -2.35855 49.9029 6.02441 41.7256L6.42969 41.3408L48.9795 2.04199C49.7558 1.325 50.6647 0.782598 51.6445 0.4375V0H61.6445V5.74707ZM85.5361 44.5352L73.5703 56.5L85.5352 68.4648L78.4648 75.5352L66.5 63.5703L54.5352 75.5352L47.4648 68.4648L59.4287 56.5L47.4639 44.5352L54.5352 37.4639L66.5 49.4287L78.4648 37.4639L85.5361 44.5352Z" fill="currentColor"/>
</svg>
