<svg width="97" height="109" viewBox="0 0 97 109" fill="none" xmlns="http://www.w3.org/2000/svg">
<rect x="69" y="43" width="7" height="22" rx="3" fill="currentColor"/>
<path d="M61.6446 5.74707C61.8069 6.36914 61.8946 7.02145 61.8946 7.69434V101.182C61.8946 101.861 61.8076 102.521 61.6446 103.149V109H51.6446V108.61C50.7899 108.331 49.984 107.905 49.2667 107.346L48.9972 107.125L7.00596 71.2363C-1.95738 63.5756 -2.35856 49.9029 6.02451 41.7256L6.42979 41.3408L48.9796 2.04199C49.7559 1.32496 50.6648 0.782599 51.6446 0.4375V0H61.6446V5.74707ZM11.1798 46.4824C5.46034 51.765 5.63527 60.8565 11.5538 65.915L51.6446 100.179V9.10938L11.1798 46.4824Z" fill="currentColor"/>
<path d="M71 82.75C71 82.75 93 77 93 52C93 27 71 25 71 25" stroke="currentColor" stroke-width="7" stroke-linecap="round"/>
</svg>
