<svg width="88" height="80" viewBox="0 0 88 80" fill="none" xmlns="http://www.w3.org/2000/svg">
<rect x="53.8453" y="1.95122" width="7.69219" height="78.0488" rx="3.84609" fill="white"/>
<rect x="55.7684" y="72.1951" width="30.7687" height="7.80488" rx="3.90244" fill="white"/>
<rect x="78.8449" y="17.561" width="7.69219" height="62.439" rx="3.84609" fill="white"/>
<rect x="26.9227" y="1.95122" width="7.69219" height="78.0488" rx="3.84609" fill="white"/>
<path d="M0 5.79731C0 3.67317 1.72196 1.95122 3.84609 1.95122V1.95122C5.97023 1.95122 7.69219 3.67318 7.69219 5.79731V76.1539C7.69219 78.2781 5.97023 80 3.84609 80V80C1.72196 80 0 78.2781 0 76.1539V5.79731Z" fill="white"/>
<rect width="35.1262" height="7.77686" rx="3.88843" transform="matrix(-0.862848 -0.505464 -0.494556 0.869146 88 17.755)" fill="white"/>
</svg>
