<svg width="46" height="47" viewBox="0 0 46 47" fill="none" xmlns="http://www.w3.org/2000/svg">
<rect x="1.5" y="12.5" width="30" height="33" rx="2.5" stroke="white" stroke-width="3"/>
<path d="M40.2061 0.00488281C42.3194 0.112115 44 1.85996 44 4V32C44 34.14 42.3194 35.8879 40.2061 35.9951L40 36H35.4639C35.8044 35.4116 36 34.7288 36 34V33H40C40.5523 33 41 32.5523 41 32V4C41 3.44772 40.5523 3 40 3H15C14.4477 3 14 3.44772 14 4V8C12.805 8 11.733 8.52463 11 9.35547V4C11 1.79086 12.7909 6.44256e-08 15 0H40L40.2061 0.00488281Z" fill="white"/>
<rect x="34" y="33" width="2" height="3" fill="white"/>
<rect x="11" y="8" width="3" height="2" fill="white"/>
</svg>
