<svg width="308" height="308" viewBox="0 0 308 308" fill="none" xmlns="http://www.w3.org/2000/svg">
<path d="M296.795 11.0378C282.075 -3.68225 258.126 -3.67625 243.418 11.0378L34.2709 220.191C33.9909 220.471 30.8369 223.75 30.0199 225.587L1.05686 290.656C-1.00014 295.275 0.000854492 300.683 3.57785 304.256C5.91485 306.592 9.03886 307.832 12.2169 307.832C13.8919 307.832 15.5789 307.486 17.1769 306.775L82.2469 277.812C84.0769 276.997 87.3609 273.842 87.6429 273.562L296.795 64.4157C303.926 57.2847 307.855 47.8058 307.855 37.7238C307.855 27.6428 303.926 18.1618 296.795 11.0378ZM279.529 47.1437L70.3759 256.297C70.3409 256.333 70.3209 256.375 70.2869 256.404L36.2979 271.535L51.4289 237.547C51.4589 237.511 51.4999 237.492 51.5359 237.457L260.684 28.3047C265.722 23.2657 274.503 23.2717 279.53 28.3097C282.048 30.8197 283.435 34.1648 283.435 37.7238C283.435 41.2828 282.046 44.6267 279.529 47.1437Z" fill="white"/>
</svg>
