<svg width="44" height="46" viewBox="0 0 44 46" fill="none" xmlns="http://www.w3.org/2000/svg">
<path d="M19.2822 46H15.2822V42H19.2822V46ZM20.2822 0C26.9096 0 32.2822 4.99187 32.2822 13C32.2822 17.5288 30.5628 21.5714 27.8711 24.2305C27.983 24.3 28.1005 24.3715 28.2217 24.4473C29.3642 25.1615 30.9095 26.1505 32.5137 27.2412C34.1122 28.328 35.7976 29.5351 37.207 30.6875C38.5309 31.7699 39.8873 33.0183 40.5293 34.1895C41.5347 36.0239 42.208 38.4684 42.624 40.3174C42.8379 41.2681 42.9947 42.1144 43.0986 42.7236C43.1506 43.0287 43.1896 43.2762 43.2158 43.4492C43.2289 43.5358 43.2393 43.6048 43.2461 43.6523C43.2494 43.6758 43.2511 43.6948 43.2529 43.708C43.2538 43.7142 43.2562 43.7189 43.2568 43.7227V43.7305L43.5645 46H19.2988L19.2979 42L38.8926 41.999C38.8404 41.7436 38.7844 41.4739 38.7217 41.1953C38.3193 39.4073 37.7419 37.4269 37.0215 36.1123C36.8003 35.7089 36.0395 34.9 34.6748 33.7842C33.3957 32.7384 31.8202 31.6048 30.2656 30.5479C28.7165 29.4946 27.2153 28.5358 26.1006 27.8389C25.5445 27.4912 25.0862 27.2096 24.7676 27.0156C24.6083 26.9187 24.4832 26.8434 24.3994 26.793C24.3576 26.7678 24.3257 26.7489 24.3047 26.7363C24.2942 26.73 24.2863 26.7247 24.2812 26.7217C24.2793 26.7206 24.2775 26.7203 24.2764 26.7197L24.2744 26.7178L24.3066 26.6631C23.0485 27.2042 21.6941 27.5 20.2822 27.5C13.6548 27.5 8.28223 21.0081 8.28223 13C8.28223 4.99187 13.6548 0 20.2822 0ZM7.5 37H13V39H7.5V44H5.5V39H0V37H5.5V31H7.5V37ZM20.2822 3C15.4098 3 11.2822 6.54881 11.2822 13C11.2822 19.9076 15.818 24.5 20.2822 24.5C24.7465 24.5 29.2822 19.9076 29.2822 13C29.2822 6.54881 25.1546 3 20.2822 3Z" fill="white"/>
</svg>
