<svg width="47" height="47" viewBox="0 0 47 47" fill="none" xmlns="http://www.w3.org/2000/svg">
<path d="M47 38C47 42.6944 43.866 46.5 40 46.5C36.134 46.5 33 42.6944 33 38C33 33.3056 37.134 30 41 30C41.7292 30 42.3968 30.1175 43 30.3398V17H47V38ZM24 0C30.6274 0 36 4.99187 36 13C36 19.7564 32.1757 25.4333 27 27.043V23.8125C30.2907 22.2902 33 18.3375 33 13C33 6.54881 28.8724 3 24 3C19.1276 3 15 6.54881 15 13C15 18.3375 17.7093 22.2902 21 23.8125V27.041C20.652 26.9327 20.3097 26.8072 19.9746 26.6631L20.0078 26.7178L20.0059 26.7197C20.0047 26.7203 20.0029 26.7206 20.001 26.7217C19.9959 26.7247 19.988 26.73 19.9775 26.7363C19.9565 26.7489 19.9246 26.7678 19.8828 26.793C19.799 26.8434 19.6739 26.9187 19.5146 27.0156C19.196 27.2096 18.7377 27.4912 18.1816 27.8389C17.067 28.5358 15.5657 29.4946 14.0166 30.5479C12.462 31.6048 10.8865 32.7384 9.60742 33.7842C8.24273 34.9 7.48195 35.7089 7.26074 36.1123C6.54033 37.4269 5.96288 39.4073 5.56055 41.1953C5.49786 41.4739 5.44187 41.7436 5.38965 41.999L24.9844 42L24.9834 46H0.717773L1.02539 43.7305V43.7227C1.02598 43.7189 1.02841 43.7142 1.0293 43.708C1.03113 43.6948 1.03278 43.6758 1.03613 43.6523C1.04294 43.6048 1.0533 43.5358 1.06641 43.4492C1.0926 43.2762 1.13158 43.0287 1.18359 42.7236C1.28749 42.1144 1.4443 41.2681 1.6582 40.3174C2.07425 38.4684 2.7475 36.0239 3.75293 34.1895C4.39489 33.0183 5.75137 31.7699 7.0752 30.6875C8.48459 29.5351 10.1701 28.328 11.7686 27.2412C13.3728 26.1505 14.9181 25.1615 16.0605 24.4473C16.1814 24.3717 16.2985 24.2998 16.4102 24.2305C13.7187 21.5714 12 17.5285 12 13C12 4.99187 17.3726 0 24 0ZM29 46H25V42H29V46ZM41 34C39.072 34 37 35.7764 37 38C37 41.2469 39.0346 42.5 40 42.5C40.9654 42.5 43 41.2469 43 38C43 36.1925 42.5807 35.1 42.2031 34.5752C41.9301 34.1958 41.6324 34 41 34Z" fill="white"/>
</svg>
