<svg width="64" height="64" viewBox="0 0 64 64" fill="none" xmlns="http://www.w3.org/2000/svg">
<circle cx="32" cy="32" r="30.5" stroke="white" stroke-width="3"/>
<path d="M32.5 9C40.5081 9 46.9999 14.9068 47 24.3828C47 32.0545 42.7447 38.5494 36.875 40.7451V37.4512C40.895 35.3911 44 30.5707 44 24.3828C43.9999 16.5237 38.8115 12 32.5 12C26.1885 12 21.0001 16.5237 21 24.3828C21 30.9505 24.4977 35.9776 28.875 37.7988V40.999C22.6212 39.0942 18 32.3776 18 24.3828C18.0001 14.9068 24.4919 9 32.5 9Z" fill="white"/>
<line x1="27.9924" y1="39.1248" x2="10.9924" y2="54.1248" stroke="white" stroke-width="3"/>
<line y1="-1.5" x2="22.6716" y2="-1.5" transform="matrix(0.749838 0.661622 0.661622 -0.749838 39 38)" stroke="white" stroke-width="3"/>
</svg>
